<svg id="visual" viewBox="0 0 900 600" width="900" height="600" xmlns="http://www.w3.org/2000/svg" xmlns:xlink="http://www.w3.org/1999/xlink" version="1.1"><path d="M0 115L16.7 105C33.3 95 66.7 75 100 65C133.3 55 166.7 55 200 59C233.3 63 266.7 71 300 82C333.3 93 366.7 107 400 114C433.3 121 466.7 121 500 112C533.3 103 566.7 85 600 84C633.3 83 666.7 99 700 103C733.3 107 766.7 99 800 100C833.3 101 866.7 111 883.3 116L900 121L900 0L883.3 0C866.7 0 833.3 0 800 0C766.7 0 733.3 0 700 0C666.7 0 633.3 0 600 0C566.7 0 533.3 0 500 0C466.7 0 433.3 0 400 0C366.7 0 333.3 0 300 0C266.7 0 233.3 0 200 0C166.7 0 133.3 0 100 0C66.7 0 33.3 0 16.7 0L0 0Z" fill="#c62368"></path><path d="M0 241L16.7 225C33.3 209 66.7 177 100 170C133.3 163 166.7 181 200 191C233.3 201 266.7 203 300 207C333.3 211 366.7 217 400 220C433.3 223 466.7 223 500 215C533.3 207 566.7 191 600 187C633.3 183 666.7 191 700 187C733.3 183 766.7 167 800 175C833.3 183 866.7 215 883.3 231L900 247L900 119L883.3 114C866.7 109 833.3 99 800 98C766.7 97 733.3 105 700 101C666.7 97 633.3 81 600 82C566.7 83 533.3 101 500 110C466.7 119 433.3 119 400 112C366.7 105 333.3 91 300 80C266.7 69 233.3 61 200 57C166.7 53 133.3 53 100 63C66.7 73 33.3 93 16.7 103L0 113Z" fill="#e95667"></path><path d="M0 391L16.7 371C33.3 351 66.7 311 100 301C133.3 291 166.7 311 200 342C233.3 373 266.7 415 300 438C333.3 461 366.7 465 400 458C433.3 451 466.7 433 500 429C533.3 425 566.7 435 600 438C633.3 441 666.7 437 700 436C733.3 435 766.7 437 800 430C833.3 423 866.7 407 883.3 399L900 391L900 245L883.3 229C866.7 213 833.3 181 800 173C766.7 165 733.3 181 700 185C666.7 189 633.3 181 600 185C566.7 189 533.3 205 500 213C466.7 221 433.3 221 400 218C366.7 215 333.3 209 300 205C266.7 201 233.3 199 200 189C166.7 179 133.3 161 100 168C66.7 175 33.3 207 16.7 223L0 239Z" fill="#fa7268"></path><path d="M0 505L16.7 507C33.3 509 66.7 513 100 521C133.3 529 166.7 541 200 546C233.3 551 266.7 549 300 548C333.3 547 366.7 547 400 540C433.3 533 466.7 519 500 521C533.3 523 566.7 541 600 542C633.3 543 666.7 527 700 523C733.3 519 766.7 527 800 526C833.3 525 866.7 515 883.3 510L900 505L900 389L883.3 397C866.7 405 833.3 421 800 428C766.7 435 733.3 433 700 434C666.7 435 633.3 439 600 436C566.7 433 533.3 423 500 427C466.7 431 433.3 449 400 456C366.7 463 333.3 459 300 436C266.7 413 233.3 371 200 340C166.7 309 133.3 289 100 299C66.7 309 33.3 349 16.7 369L0 389Z" fill="#e95667"></path><path d="M0 601L16.7 601C33.3 601 66.7 601 100 601C133.3 601 166.7 601 200 601C233.3 601 266.7 601 300 601C333.3 601 366.7 601 400 601C433.3 601 466.7 601 500 601C533.3 601 566.7 601 600 601C633.3 601 666.7 601 700 601C733.3 601 766.7 601 800 601C833.3 601 866.7 601 883.3 601L900 601L900 503L883.3 508C866.7 513 833.3 523 800 524C766.7 525 733.3 517 700 521C666.7 525 633.3 541 600 540C566.7 539 533.3 521 500 519C466.7 517 433.3 531 400 538C366.7 545 333.3 545 300 546C266.7 547 233.3 549 200 544C166.7 539 133.3 527 100 519C66.7 511 33.3 507 16.7 505L0 503Z" fill="#c62368"></path></svg>