<svg data-v-fde0c5aa="" xmlns="http://www.w3.org/2000/svg" viewBox="0 0 300 300" class="iconLeft"><!----><defs data-v-fde0c5aa=""><!----></defs><rect data-v-fde0c5aa="" fill="transparent" x="0" y="0" width="300px" height="300px" class="logo-background-square"></rect><defs data-v-fde0c5aa=""><!----></defs><g data-v-fde0c5aa="" id="0fcd4184-004b-46b4-8076-a292f041a0f2" fill="#000000" transform="matrix(2.372201997062947,0,0,2.372201997062947,81.349468868082,130.33444496926347)"><path d="M3.94 3.82L1.17 3.82L1.17 13.15L3.94 13.15C7.19 13.15 8.97 11.10 8.97 8.47C8.97 5.86 7.19 3.82 3.94 3.82ZM3.70 11.94L2.65 11.94L2.65 5.03L3.70 5.03C6.21 5.03 7.42 6.39 7.42 8.47C7.42 10.57 6.21 11.94 3.70 11.94ZM16.76 9.70C16.76 7.73 15.43 6.36 13.50 6.36C11.52 6.36 10.09 7.89 10.09 9.84C10.09 11.80 11.51 13.31 13.68 13.31C14.82 13.31 15.78 12.92 16.38 12.25L15.40 11.46C14.98 11.94 14.41 12.19 13.66 12.19C12.43 12.19 11.68 11.33 11.58 10.15L16.76 10.15ZM13.50 7.50C14.54 7.50 15.21 8.12 15.36 9.17L11.64 9.17C11.84 8.17 12.53 7.50 13.50 7.50ZM24.05 13.15L21.50 9.70L23.77 6.53L22.17 6.53L20.69 8.74L19.21 6.53L17.62 6.53L19.91 9.71L17.35 13.15L18.99 13.15L20.69 10.68L22.40 13.15ZM28.13 6.53L26.72 6.53L26.72 4.64L25.32 4.64L25.32 6.53L24.44 6.53L24.44 7.67L25.32 7.67L25.32 13.15L26.73 13.15L26.72 7.67L28.13 7.67ZM35.50 9.70C35.50 7.73 34.17 6.36 32.24 6.36C30.26 6.36 28.83 7.89 28.83 9.84C28.83 11.80 30.25 13.31 32.42 13.31C33.56 13.31 34.52 12.92 35.12 12.25L34.14 11.46C33.72 11.94 33.15 12.19 32.40 12.19C31.16 12.19 30.42 11.33 30.32 10.15L35.50 10.15ZM32.24 7.50C33.28 7.50 33.95 8.12 34.10 9.17L30.38 9.17C30.58 8.17 31.27 7.50 32.24 7.50ZM39.99 6.36C39.20 6.36 38.68 6.74 38.30 7.41L38.12 6.53L36.90 6.53L36.90 13.15L38.31 13.15L38.31 9.70C38.31 8.62 38.88 7.66 39.91 7.66C40.15 7.66 40.37 7.70 40.56 7.79L40.98 6.58C40.80 6.47 40.43 6.36 39.99 6.36ZM41.93 7.50L42.53 7.50C42.69 5.78 43.04 5.10 43.04 4.45C43.04 3.97 42.69 3.59 42.23 3.59C41.78 3.59 41.42 3.97 41.42 4.45C41.42 5.10 41.77 5.78 41.93 7.50ZM43.69 12.22C44.17 12.88 45.18 13.34 46.42 13.34C48.05 13.34 49.06 12.54 49.06 11.35C49.06 9.00 45.56 9.79 45.56 8.36C45.56 7.86 45.94 7.53 46.71 7.51C47.19 7.50 47.75 7.73 48.14 8.11L48.91 7.22C48.48 6.75 47.63 6.36 46.65 6.36C45.08 6.36 44.11 7.19 44.11 8.41C44.11 10.82 47.56 10.09 47.56 11.38C47.56 11.87 47.15 12.21 46.33 12.21C45.68 12.21 45.08 11.97 44.60 11.35ZM55.88 11.87L55.88 3.82L54.40 3.82L54.40 13.15L59.50 13.15L59.50 11.87ZM65.70 6.53L65.51 7.45C65.00 6.78 64.23 6.36 63.20 6.36C61.48 6.36 60.11 7.69 60.11 9.84C60.11 12.00 61.48 13.31 63.20 13.31C64.21 13.31 64.98 12.89 65.49 12.22L65.70 13.15L66.86 13.15L66.86 6.53ZM63.54 12.12C62.34 12.12 61.56 11.14 61.56 9.84C61.56 8.55 62.34 7.55 63.54 7.55C64.78 7.55 65.58 8.55 65.58 9.84C65.58 11.14 64.78 12.12 63.54 12.12ZM72.22 6.36C71.27 6.36 70.54 6.72 70.03 7.32L70.03 3.24L68.61 3.24L68.61 13.15L69.77 13.15L69.94 12.25C70.45 12.91 71.23 13.31 72.22 13.31C73.94 13.31 75.31 12.00 75.31 9.84C75.31 7.69 73.94 6.36 72.22 6.36ZM71.88 12.12C70.64 12.12 69.84 11.14 69.84 9.84C69.84 8.55 70.64 7.55 71.88 7.55C73.08 7.55 73.86 8.55 73.86 9.84C73.86 11.14 73.08 12.12 71.88 12.12Z"></path></g><defs data-v-fde0c5aa=""><linearGradient data-v-fde0c5aa="" gradientTransform="rotate(25)" id="c910e42c-ee34-4f7e-80ee-0b5d78b30bff" x1="0%" y1="0%" x2="100%" y2="0%"><stop data-v-fde0c5aa="" offset="0%" stop-color="#41E296" stop-opacity="1"></stop><stop data-v-fde0c5aa="" offset="100%" stop-color="#00C4EE" stop-opacity="1"></stop></linearGradient></defs><g data-v-fde0c5aa="" id="a9deedc2-f4fa-4aa6-ba2f-5ff845bf17fe" stroke="none" fill="url(#c910e42c-ee34-4f7e-80ee-0b5d78b30bff)" transform="matrix(0.4379476878852628,0,0,0.4379476878852628,35.85482506734047,130.29235477606724)"><path d="M38.182 57.753L20.18 47.91v-5.455l18.002-9.803v6.422l-12.557 6.039 12.557 6.266zM39.848 62.08l6.503-34.162h3.785L43.56 62.08zM51.8 57.78V51.4l12.572-6.219L51.8 39.028v-6.332L69.82 42.5v5.41z"></path><path d="M44.999 86.031L9.465 65.517V24.484L44.999 3.969l35.536 20.516v41.029L44.999 86.031zM13.07 63.434l31.929 18.434L76.93 63.434V26.566L44.999 8.131 13.07 26.565v36.869z"></path></g><!----></svg>