<svg id="visual" viewBox="0 0 900 600" width="900" height="600" xmlns="http://www.w3.org/2000/svg" xmlns:xlink="http://www.w3.org/1999/xlink" version="1.1"><path d="M0 91L16.7 87C33.3 83 66.7 75 100 67C133.3 59 166.7 51 200 50C233.3 49 266.7 55 300 55C333.3 55 366.7 49 400 46C433.3 43 466.7 43 500 50C533.3 57 566.7 71 600 70C633.3 69 666.7 53 700 53C733.3 53 766.7 69 800 79C833.3 89 866.7 93 883.3 95L900 97L900 0L883.3 0C866.7 0 833.3 0 800 0C766.7 0 733.3 0 700 0C666.7 0 633.3 0 600 0C566.7 0 533.3 0 500 0C466.7 0 433.3 0 400 0C366.7 0 333.3 0 300 0C266.7 0 233.3 0 200 0C166.7 0 133.3 0 100 0C66.7 0 33.3 0 16.7 0L0 0Z" fill="#00285f"></path><path d="M0 181L16.7 192C33.3 203 66.7 225 100 219C133.3 213 166.7 179 200 189C233.3 199 266.7 253 300 261C333.3 269 366.7 231 400 213C433.3 195 466.7 197 500 205C533.3 213 566.7 227 600 228C633.3 229 666.7 217 700 203C733.3 189 766.7 173 800 172C833.3 171 866.7 185 883.3 192L900 199L900 95L883.3 93C866.7 91 833.3 87 800 77C766.7 67 733.3 51 700 51C666.7 51 633.3 67 600 68C566.7 69 533.3 55 500 48C466.7 41 433.3 41 400 44C366.7 47 333.3 53 300 53C266.7 53 233.3 47 200 48C166.7 49 133.3 57 100 65C66.7 73 33.3 81 16.7 85L0 89Z" fill="#0e3b8a"></path><path d="M0 469L16.7 460C33.3 451 66.7 433 100 411C133.3 389 166.7 363 200 363C233.3 363 266.7 389 300 394C333.3 399 366.7 383 400 381C433.3 379 466.7 391 500 397C533.3 403 566.7 403 600 403C633.3 403 666.7 403 700 401C733.3 399 766.7 395 800 405C833.3 415 866.7 439 883.3 451L900 463L900 197L883.3 190C866.7 183 833.3 169 800 170C766.7 171 733.3 187 700 201C666.7 215 633.3 227 600 226C566.7 225 533.3 211 500 203C466.7 195 433.3 193 400 211C366.7 229 333.3 267 300 259C266.7 251 233.3 197 200 187C166.7 177 133.3 211 100 217C66.7 223 33.3 201 16.7 190L0 179Z" fill="#2a56a9"></path><path d="M0 535L16.7 539C33.3 543 66.7 551 100 540C133.3 529 166.7 499 200 492C233.3 485 266.7 501 300 512C333.3 523 366.7 529 400 531C433.3 533 466.7 531 500 533C533.3 535 566.7 541 600 535C633.3 529 666.7 511 700 513C733.3 515 766.7 537 800 542C833.3 547 866.7 535 883.3 529L900 523L900 461L883.3 449C866.7 437 833.3 413 800 403C766.7 393 733.3 397 700 399C666.7 401 633.3 401 600 401C566.7 401 533.3 401 500 395C466.7 389 433.3 377 400 379C366.7 381 333.3 397 300 392C266.7 387 233.3 361 200 361C166.7 361 133.3 387 100 409C66.7 431 33.3 449 16.7 458L0 467Z" fill="#0e3b8a"></path><path d="M0 601L16.7 601C33.3 601 66.7 601 100 601C133.3 601 166.7 601 200 601C233.3 601 266.7 601 300 601C333.3 601 366.7 601 400 601C433.3 601 466.7 601 500 601C533.3 601 566.7 601 600 601C633.3 601 666.7 601 700 601C733.3 601 766.7 601 800 601C833.3 601 866.7 601 883.3 601L900 601L900 521L883.3 527C866.7 533 833.3 545 800 540C766.7 535 733.3 513 700 511C666.7 509 633.3 527 600 533C566.7 539 533.3 533 500 531C466.7 529 433.3 531 400 529C366.7 527 333.3 521 300 510C266.7 499 233.3 483 200 490C166.7 497 133.3 527 100 538C66.7 549 33.3 541 16.7 537L0 533Z" fill="#00285f"></path></svg>